<?xml version="1.0" encoding="utf-8"?><svg xmlns="http://www.w3.org/2000/svg" xmlns:xlink="http://www.w3.org/1999/xlink"><symbol viewBox="0 0 448.011 448.011" id="arrow" xmlns="http://www.w3.org/2000/svg"><path d="M438.731 209.463l-416-192c-6.624-3.008-14.528-1.216-19.136 4.48a15.911 15.911 0 00-.384 19.648l136.8 182.4-136.8 182.4c-4.416 5.856-4.256 13.984.352 19.648 3.104 3.872 7.744 5.952 12.448 5.952 2.272 0 4.544-.48 6.688-1.472l416-192c5.696-2.624 9.312-8.288 9.312-14.528s-3.616-11.904-9.28-14.528z"/></symbol><symbol viewBox="0 0 490.88 436.15" id="basket" xmlns="http://www.w3.org/2000/svg"><path d="M451.611 178.111h-31.244c3.668 20.593-5.14 42.301-23.979 53.957a52.522 52.522 0 01-27.635 7.869c-18.359 0-35.082-9.312-44.729-24.912-6.822-11.033-9.033-24.246-6.75-36.915h-143.67c2.273 12.669.063 25.881-6.758 36.922-9.639 15.592-26.362 24.904-44.721 24.904a52.554 52.554 0 01-27.646-7.869c-18.835-11.656-27.646-33.364-23.974-53.957H39.263C17.575 178.11 0 195.685 0 217.373c0 21.676 17.575 39.25 39.263 39.25h4.331l28.793 175.116c3.019 18.319 18.847 31.771 37.423 31.771h271.254c18.575 0 34.403-13.452 37.42-31.771l28.784-175.114h4.343c21.686 0 39.264-17.576 39.264-39.251 0-21.688-17.58-39.263-39.264-39.263zM167.419 418.083c-1.186.174-2.36.266-3.523.266-11.459 0-21.503-8.391-23.269-20.069l-16.306-108.682c-1.931-12.87 6.931-24.861 19.801-26.792 12.886-1.875 24.853 6.931 26.792 19.793l16.31 108.692c1.931 12.866-6.935 24.86-19.805 26.792zm101.578-23.301c0 13.018-10.541 23.564-23.552 23.564-13.016 0-23.552-10.549-23.552-23.564V286.093c0-13.004 10.537-23.553 23.552-23.553 13.011 0 23.552 10.549 23.552 23.553v108.689zm97.564-105.186l-16.317 108.682c-1.754 11.68-11.797 20.069-23.256 20.069-1.168 0-2.338-.091-3.527-.266-12.869-1.931-21.732-13.926-19.801-26.792l16.307-108.692c1.938-12.87 13.857-21.732 26.791-19.794 12.867 1.931 21.732 13.924 19.803 26.793z"/><path d="M102.748 218.713a36.694 36.694 0 0019.379 5.521c12.341 0 24.407-6.199 31.362-17.464 6.415-10.375 6.967-22.646 2.739-33.151l69.947-113.048c6.321-10.222 3.16-23.611-7.062-29.944a21.692 21.692 0 00-11.423-3.263c-7.286 0-14.402 3.661-18.528 10.324l-69.924 113.048c-11.282.906-22.02 6.86-28.435 17.232-10.717 17.315-5.354 40.035 11.945 50.745zm231.904-45.094c-4.228 10.505-3.688 22.776 2.729 33.151 6.967 11.266 19.021 17.464 31.373 17.464a36.724 36.724 0 0019.379-5.521c17.299-10.71 22.65-33.431 11.937-50.745-6.398-10.372-17.146-16.326-28.418-17.232L301.7 37.688c-4.114-6.664-11.231-10.324-18.519-10.324-3.899 0-7.855 1.06-11.427 3.263-10.218 6.333-13.354 19.722-7.058 29.944l69.956 113.048z"/></symbol><symbol viewBox="0 0 1280 923" id="big_sinica" xmlns="http://www.w3.org/2000/svg"><path d="M336 9.1c-40 4.1-83.6 17.6-116.1 35.9-15.9 8.9-35.6 23-46.5 33.3-16.7 15.6-32.1 39.8-43.9 68.8l-4.7 11.7-6.1 1.7c-26 7.2-60.8 20-79 29C20 199.3 14 205.1 14 214.6c0 6.2 2.8 10.2 9.3 13.6 12.1 6.1 57.8 13.7 101.7 16.8 17.8 1.3 21.3 2.5 31.6 10.9 15.8 12.8 31.3 41.9 36.5 68.6 2.3 11.6 1.8 56-1.1 96-2.1 29.4-2.4 41-2.5 86.5 0 54.8.7 67.8 4.5 87.1 7.5 37 22.9 66.6 48 92 38.2 38.6 95.5 62.4 182.8 76 8.3 1.3 15.2 2.8 15.1 3.4 0 .5-14.1 19.9-31.3 43l-31.3 42-30.9.6c-28 .5-31.4.8-36.7 2.7-15.6 5.7-27.4 15.3-33.9 27.8-4.9 9.4-6.6 15.9-7.4 29.2l-.7 11.2 136.4-.2 136.3-.3 33.4-46.5c68.7-95.9 109.5-152.5 110.2-153.3.4-.5 60.5 9.6 133.6 22.3 181.9 31.6 441.3 76.9 444.7 77.6 1.5.3 2.7.1 2.7-.4s-4.8-4.3-10.7-8.4c-6-4.1-21.4-14.9-34.3-23.9-76.8-53.3-174.1-127.4-248-188.8-63-52.3-108.8-93.7-156.5-141.5C755 397.9 717.7 352.1 692.1 307c-13.5-23.7-20.5-43.2-24.1-66.8-2.6-17.4-5.4-29.1-10.2-43-13.7-40.1-38-78.4-69.8-110.2-27.8-27.9-58.5-47.7-91.4-59-24-8.2-61.9-16.2-89.5-19-12.2-1.2-58.9-1.1-71.1.1zm78 25.3c25.5 3.4 57.5 10.8 78 18.3 27.7 10 54.8 27.9 79 52.3 21.2 21.3 38 45 51.5 72.4 12.8 25.9 18 43 22.1 71.6 8 57 55.8 128.6 147.9 221.9 67.6 68.5 151.1 141 257.5 223.6 24 18.6 79 60.1 101.7 76.5 5.6 4.1 10.1 7.6 9.9 7.7-.1.1-23.3-3.8-51.6-8.7-51.2-9-115.2-20.1-235.5-41.1-34.6-6-94-16.4-131.9-23-65.5-11.4-68.9-11.9-70.2-10.2-12.7 17.2-41.3 56.8-88.2 122.1L526.6 898H294.9l2.3-4.1c3.4-6.1 11.9-13.4 18.3-15.8 5.1-1.9 7.7-2.1 29.9-2.1 13.4 0 29-.3 34.7-.7l10.4-.6 16-21.6c8.8-11.9 29.3-39.6 45.5-61.6 16.3-22 30.4-41.2 31.4-42.7 2.2-3.4 4.3-2.8-25.9-6.8-53.6-7.1-90.4-15.2-121.1-26.5-13.9-5.1-38.2-17.2-48.9-24.2-44.2-29.1-67.6-69.7-72.5-125.3-1.1-12.6-1.5-103-.5-114.4 1-11.4 4.4-69 5-84.1.7-17.3-.6-39.5-3-51-3.9-19-13.5-41.6-24.8-58.5-6.5-9.7-20.5-23.4-29.2-28.5l-6.9-4.1-.1-16.4c-.2-17.3-1.5-24.1-6.7-34.4l-2-3.9 4.2-10.6c11.4-28.9 26.5-52.6 41.6-65.6 39.3-33.8 88.7-54.4 146.4-61 16.3-1.8 57.6-1.3 75 .9zM136.2 186.7c1.1 2.5 2.3 6.3 2.5 8.3.5 3.7.5 3.8-3.3 4.4-15.7 2.4-67.8 5.6-66.2 4.1 1.6-1.7 59.7-21.2 63.6-21.4.7-.1 2.2 2 3.4 4.6zm3.8 26.5c0 7.1-.6 7.8-7.1 7.8-6 0-41.1-3.4-50.4-4.9l-5-.8 7.5-.6c4.1-.3 14.9-1.1 24-1.7 9.1-.6 19-1.5 22-2 9.2-1.3 9-1.3 9 2.2z"/><path d="M258.8 128.3c-9.9 3.8-16.6 9.7-21 18.7-1.8 3.6-2.2 6.3-2.2 14-.1 8.8.1 10 3.2 16.2 3.7 7.5 8.8 12.3 16.8 16 7.4 3.5 20.8 3.3 28.6-.4 7-3.2 13.3-9.6 16.7-16.8 2.2-4.7 2.6-6.8 2.6-15 0-8.4-.3-10.1-2.8-14.8-3.5-6.8-9.2-12.4-15.9-15.8-4.3-2.2-7-2.8-13.8-3.1-5.5-.2-9.8.2-12.2 1zm17.3 21.2c9.3 4.8 9 19.4-.5 23.9-6.8 3.2-13.7 1.3-17.5-4.7-7.3-11.8 5.6-25.6 18-19.2z"/><path d="M441.5 143.5c-28.4 5.4-65.5 18.6-132 47.1-35.6 15.2-36.3 15.4-54.7 10.8-21.1-5.2-37.2-3.5-49.9 5.4-13.2 9.2-15.6 22.3-6.3 34.8 6.9 9.3 16.4 15.2 59.5 36.9 41.8 21.1 75.1 34.3 95.9 38.1 13.2 2.5 48.5 2.5 66 .1 15.6-2.2 47-8.1 56.9-10.8 30.4-8.2 54.5-36.2 61.2-71 1.9-10.2 1.5-29-1-38.4-6.9-26.4-25.2-44.8-51.6-51.6-10.8-2.8-32.8-3.5-44-1.4zm35 21c3.9.8 10.2 3 14.1 5 12.8 6.3 20.1 14.6 25.2 28.7 2.3 6.5 2.6 8.8 2.5 19.8 0 11.3-.3 13.4-3.2 22-5.5 16.3-13.7 28.1-25.6 36.5-11 7.9-17.6 9.9-51.5 16-26.1 4.7-39.4 5.9-58.9 5.2-23.5-.8-36.4-4.1-66.6-16.9-15.8-6.7-62.6-29.7-78.4-38.5-11.3-6.3-20.9-14.2-19.7-16.1.4-.7 3-2.4 5.9-3.8 7.8-4 13.9-4.1 29.9-.5 14.3 3.2 24.7 3.9 32.5 2.1 2.3-.5 18-6.9 35-14.1 97.7-41.6 131.3-51.2 158.8-45.4zm9.3 162.6c-25.5 4.1-43.1 24.6-43.3 50.4 0 4.9.3 10.4.7 12.1l.7 3.1-10-.5c-12.3-.6-19 .8-28.4 5.7-18.3 9.5-29.2 30-26.8 50.9l.8 7.7-11.2-.4c-13.4-.4-21.5 1.6-30.8 7.7-14.2 9.2-22.2 23.1-23.2 40.7-.6 10.6.2 14.3 7.6 33.4 14.4 37.1 55.3 139.7 57.7 144.6 6.5 13.9 22.3 25.2 38.6 27.7 26.6 4 52.2-13.4 57.8-39.3.7-3.2 1.1-9.8.8-15.5l-.4-10 7.5 1c10.7 1.3 19.6-.3 29.7-5.3 19.4-9.7 31-31.9 27.6-53.3-.6-4-1-7.3-.9-7.4.1-.1 3 .3 6.5.9 18.7 3 39.2-6.1 50.1-22.3 6.1-9.3 8.5-17.6 8.5-29.5-.1-11.6 2.3-4.9-30.4-88-36.1-91.8-35.2-89.8-42.4-98.2-10.4-12-30.3-18.9-46.8-16.2zm16.9 21.4c5.9 1.8 12 6 15.8 10.9 2.8 3.6 9.5 19.8 35 84.6 30.5 77.4 31.5 80.1 31.5 85.7 0 7.9-3.4 15.8-9.4 21.9-12.7 12.7-30.9 12.5-43.6-.5-3.2-3.3-6.2-7.5-7.2-10.1-.9-2.5-11.6-29.7-23.8-60.5-37.2-93.8-38-96-38-102.1 0-8 3.4-15.9 9.4-22 8.5-8.5 19.1-11.2 30.3-7.9zm-58.4 67.8c10.4 5.5 10.5 5.7 34.6 66.1 44.3 111.3 41.6 104 41.6 113.1-.1 9.9-2.8 15.9-10.5 22.8-12.7 11.4-31.2 10.1-43.1-3.1-3.7-4.1-5.7-8-11.1-21.9-3.7-9.2-18-45.6-31.8-80.8l-25.2-64 .4-6.5c.6-8.3 3.5-14.7 9-20.2 10.1-10.2 23.6-12.2 36.1-5.5zm-64.2 63.9c11.3 6 9.5 2.2 51.6 109.3 26.2 66.6 25.6 65 24.9 71.8-1.2 12.1-9.1 22.5-20.2 26.7-13.3 4.9-28.1.1-36.1-11.7-2.7-4.1-35.9-86.7-58.9-146.5-7.5-19.5-8.2-25.4-4-34.4 8.1-17.4 26.4-24 42.7-15.2zm231.4 241.4c-37.8 14.6-59.1 20-90.1 22.9l-7.1.7-30.9 41.5c-54.8 73.8-64.4 86.8-64.4 87.6 0 .4 21.9.6 48.7.5l48.8-.3 58.7-79c32.4-43.5 59.3-79.8 59.9-80.8.7-1.2.6-1.7-.3-1.7-.7 0-11.2 3.9-23.3 8.6zM567.8 763c-.2.6-14.9 20.6-32.6 44.5L502.9 851h-36.1l3.9-5.3c4-5.4 56.3-75.9 56.9-76.6.2-.2 6.1-1.2 13.2-2.2 7.1-1.1 15.8-2.5 19.3-3.3 8.2-1.8 8.1-1.8 7.7-.6z"/></symbol><symbol viewBox="0 0 491.996 491.996" id="down-arrow" xmlns="http://www.w3.org/2000/svg"><path d="M484.132 124.986l-16.116-16.228c-5.072-5.068-11.82-7.86-19.032-7.86-7.208 0-13.964 2.792-19.036 7.86l-183.84 183.848L62.056 108.554c-5.064-5.068-11.82-7.856-19.028-7.856s-13.968 2.788-19.036 7.856l-16.12 16.128c-10.496 10.488-10.496 27.572 0 38.06l219.136 219.924c5.064 5.064 11.812 8.632 19.084 8.632h.084c7.212 0 13.96-3.572 19.024-8.632l218.932-219.328c5.072-5.064 7.856-12.016 7.864-19.224 0-7.212-2.792-14.068-7.864-19.128z"/></symbol><symbol viewBox="0 0 512 512" id="flip" xmlns="http://www.w3.org/2000/svg"><path d="M256 0c-8.284 0-15 6.716-15 15v70c0 8.284 6.716 15 15 15s15-6.716 15-15V15c0-8.284-6.716-15-15-15zm0 137c-8.284 0-15 6.716-15 15v70c0 8.284 6.716 15 15 15s15-6.716 15-15v-70c0-8.284-6.716-15-15-15zm0 138c-8.284 0-15 6.716-15 15v70c0 8.284 6.716 15 15 15s15-6.716 15-15v-70c0-8.284-6.716-15-15-15zm0 137c-8.284 0-15 6.716-15 15v70c0 8.284 6.716 15 15 15s15-6.716 15-15v-70c0-8.284-6.716-15-15-15zm-76.598-308.497l-120-36.842A14.999 14.999 0 0040 81v350a14.999 14.999 0 0019.402 14.338l120-36.842A14.999 14.999 0 00190 394.157V117.842c0-6.588-4.3-12.405-10.598-14.339zm286.513-34.566a14.999 14.999 0 00-13.317-2.276l-120 36.842A14.999 14.999 0 00322 117.842v276.316c0 6.588 4.3 12.405 10.598 14.339l120 36.842A15 15 0 00472 431V81c0-4.759-2.258-9.235-6.085-12.063z"/></symbol><symbol viewBox="0 0 1280 403" id="flip-arrow" xmlns="http://www.w3.org/2000/svg"><path d="M94.3 106.2C42.4 158.1 0 201.2 0 202c0 .8 42.7 44.3 95 96.5l95 95 29.2-29.3 29.3-29.2-46-46-46-46H1280v-82H156.5l46-46 46-46L220 40.5C204.3 24.8 190.8 12 190 12c-.8 0-43.9 42.4-95.7 94.2z"/></symbol><symbol viewBox="0 0 447.243 447.243" id="hover_arrow" xmlns="http://www.w3.org/2000/svg"><path d="M255.013 420.36c.297-1.83.434-3.681.41-5.534V99.305l3.2 6.88a63.998 63.998 0 0012.8 18.08l88.48 88.48c11.124 11.653 29.019 13.61 42.4 4.64 14.259-10.441 17.355-30.464 6.914-44.724a32.018 32.018 0 00-2.754-3.276l-160-160C233.973-3.12 213.712-3.13 201.208 9.36l-.025.025-160 160c-12.48 12.514-12.451 32.775.063 45.255a32.084 32.084 0 003.137 2.745c13.38 8.97 31.276 7.013 42.4-4.64l88.64-88.32a64.002 64.002 0 0011.68-16l4.32-9.6v314.24c-.607 16.347 10.812 30.689 26.88 33.76 17.445 2.829 33.88-9.02 36.71-26.464z" xmlns="http://www.w3.org/2000/svg"/></symbol><symbol viewBox="0 0 1134 1133" id="inst" xmlns="http://www.w3.org/2000/svg"><path d="M197 10.6c-35.9 4.8-70.9 19.2-101 41.7-12.2 9.1-33.6 30.5-42.8 42.9C29.5 126.9 15 163.8 11 202.5c-.8 8.1-1 106.6-.8 373.5l.4 362.5 2.1 11c11.9 60 42.8 107.8 91.8 141.7 26.3 18.2 55.3 29.5 91 35.5 10.5 1.7 26.6 1.8 374 1.8 344.4 0 363.6-.1 374.5-1.8 24.9-3.9 43.2-9.6 65.5-20.7 23.1-11.4 40.4-24 59.1-43.1 34.5-35.5 55.5-80.8 60.3-130.3 1.5-15.3 1.5-712.9 0-728.2-9.8-100.3-87.6-180.8-187.3-193.9C931.3 9.2 888 9 568.7 9.1c-303.6.1-362.9.3-371.7 1.5zm802 221.7v94.4l-63.7.6c-35.1.4-77.4.7-94 .7H811V139l86.3-.3c47.4-.1 89.7-.3 94-.5l7.7-.2v94.3zM587.1 373c69 6.7 128.6 48 159.2 110.3 8.3 16.8 13.6 33.2 17.4 53.2 2.3 12.6 2.8 42.6.9 57.2C751.7 691.3 668 765 570 765c-72.4 0-138.7-39.8-173.3-104-29.6-55-31-120.3-3.7-176.8 26.2-54.3 75.4-93.6 134-107.1 19.8-4.6 40.6-6 60.1-4.1zM285 454.8c0 .5-1.1 3.7-2.5 7.3-7.1 17.8-14.1 46.7-17.1 70.4-2 15.9-2.3 53.2-.5 68.5 6.1 51.6 21.9 95.3 49.6 137 51.7 78.1 134.8 127.5 228.4 136 18.7 1.8 53.5.8 71.6-2 123.9-18.7 223.1-109.1 253.1-230.5 6.6-26.7 7.8-38.3 7.8-72.5 0-26.6-.2-32.3-2.2-44.5-2.9-18.5-7.9-38.7-14-56.3l-4.9-14.2H1020l-.3 236.7c-.3 261.8.3 239.4-6.6 258.3-13.6 37.2-47.9 64.1-88.1 68.9-7.1.9-99.7 1.1-361.5.9-322.7-.4-352.5-.5-358.5-2-38.7-9.8-67.4-35.4-79.6-71.1-5.7-16.6-5.4-4.1-5.4-257.8V454h82.5c45.4 0 82.5.4 82.5.8z"/></symbol><symbol viewBox="0 0 513.64 513.64" id="phone-call" xmlns="http://www.w3.org/2000/svg"><path d="M499.66 376.96l-71.68-71.68c-25.6-25.6-69.12-15.359-79.36 17.92-7.68 23.041-33.28 35.841-56.32 30.72-51.2-12.8-120.32-79.36-133.12-133.12-7.68-23.041 7.68-48.641 30.72-56.32 33.28-10.24 43.52-53.76 17.92-79.36l-71.68-71.68c-20.48-17.92-51.2-17.92-69.12 0L18.38 62.08c-48.64 51.2 5.12 186.88 125.44 307.2s256 176.641 307.2 125.44l48.64-48.64c17.921-20.48 17.921-51.2 0-69.12z"/></symbol><symbol viewBox="0 0 151.34 173.58" id="play" xmlns="http://www.w3.org/2000/svg"><path d="M34.857 3.613C20.084-4.861 8.107 2.081 8.107 19.106v125.637c0 17.042 11.977 23.975 26.75 15.509L144.67 97.275c14.778-8.477 14.778-22.211 0-30.686L34.857 3.613z"/></symbol><symbol viewBox="0 0 492.004 492.004" id="right-arrow" xmlns="http://www.w3.org/2000/svg"><path d="M382.678 226.804L163.73 7.86C158.666 2.792 151.906 0 144.698 0s-13.968 2.792-19.032 7.86l-16.124 16.12c-10.492 10.504-10.492 27.576 0 38.064L293.398 245.9l-184.06 184.06c-5.064 5.068-7.86 11.824-7.86 19.028 0 7.212 2.796 13.968 7.86 19.04l16.124 16.116c5.068 5.068 11.824 7.86 19.032 7.86s13.968-2.792 19.032-7.86L382.678 265c5.076-5.084 7.864-11.872 7.848-19.088.016-7.244-2.772-14.028-7.848-19.108z"/></symbol><symbol viewBox="0 0 1160 976" id="telegram" xmlns="http://www.w3.org/2000/svg"><path d="M1102.5 2.7c-8.4 1.2-26.6 7.9-169.5 63-85 32.7-206.2 79.4-269.5 103.8-63.2 24.4-225 86.7-359.5 138.5S55.9 403.9 51.4 405.9c-18 8.5-32.6 20.3-37.8 30.7-3.6 7.2-3.6 16 0 23.2 4.9 9.8 18.3 18.8 36.9 24.9 5 1.7 66.2 20.9 136 42.7l127.1 39.8L618 375.5C785.5 270 925.8 182.1 929.9 180.2c6.2-3 8.8-3.6 15.7-4 8.2-.4 8.3-.4 11.4 2.7 3.6 3.5 3.5 5.4-.8 11.3-1.9 2.5-370 335.9-493.5 446.8-.7.6-19.6 258.2-19.7 268.2 0 2.7.2 2.8 4.8 2.8 13.3-.1 27.3-5.9 39-16.4 3.8-3.3 36.3-34.4 72.1-68.9l65.1-62.8 132.4 97.6C896.6 960.8 895.9 960.3 913 964.9c10.7 2.8 17.5 3.4 25.4 2.1 21.3-3.4 36.3-20.6 44.5-51 1.6-6 155.2-728.8 172.7-812.8 4.3-20.8 4.4-21.7 4.4-40 0-13.1-.5-20.3-1.5-24.2-6.7-25.2-29.4-40-56-36.3z"/></symbol><symbol viewBox="0 0 1083 626" id="vk" xmlns="http://www.w3.org/2000/svg"><path d="M424.5 8.1c-14.3 2.1-32.6 9.6-45.5 18.7-7 4.9-18.1 15.6-21.9 20.9l-2.2 3.3h6.3c27.8.1 49.4 17.7 56.7 46.3 3.4 13 4 25.6 5.2 103.7.8 58.4.8 76.6-.1 80-4.1 15.3-16.5 26.6-31.7 29-9.9 1.6-22.3-1.8-30-8.4-6.1-5.1-34.9-47.9-56-83.1-29.2-48.6-58.4-106.7-78.4-156-5.5-13.5-11.4-20.6-21.1-25.1l-6.3-2.9-86.9-.3c-96.6-.3-92.3-.5-100.4 6.4-2.2 1.9-5.3 5.9-6.8 8.9-2.4 5-2.6 6.3-2.2 13.3.5 6.8 1.6 10.3 9 28.7 13.5 33.4 24.9 58.3 45 98.5C145.1 365.7 247.9 499.5 348 568.2c41.4 28.5 83.4 45.8 124 51.2 10.8 1.5 21.3 1.7 76 1.4l63.5-.3 5.6-2.8c8.8-4.3 14.3-9.8 18.6-18.5l3.8-7.6.5-39.5.5-39.6 3.2-6.7c4.2-8.9 10.1-15.1 18.2-19.1 6.1-3 7.3-3.2 16.6-3.2 16.8 0 13.2-2.8 86.1 65.7 34.7 32.6 64.4 60.3 66.1 61.4 4.9 3.6 12.6 7.2 19.1 8.9 5.6 1.4 16.5 1.5 100.5 1.3l94.2-.3 7.5-2.3c14.1-4.4 24.7-11.8 29.1-20.4 1.6-3.1 1.9-5.9 1.9-17.8 0-12.6-.2-14.7-2.5-20.1-4.9-12-13-22.4-35-44.9-27.9-28.4-84.4-87.3-119.1-124.1-13-13.8-18.4-25.8-18.4-40.7 0-7.9 2.5-17.5 6.3-24.6 1.8-3.4 21.7-30.4 44.3-60.1 85.2-112.1 92-121.6 105.3-145.4 27-48.3 25-78.2-5.7-84.6-6.2-1.3-20.9-1.5-104.5-1.3l-97.2.3-6.7 3.2c-9.4 4.4-15.1 10.6-22.2 23.8-3.2 6-17.9 33.3-32.6 60.5-14.7 27.2-34.7 64.6-44.5 83-24.7 46.6-31 57.1-43.6 72.6-13 16-28 26.4-37.8 26.4-12.3-.1-21.2-9.8-26.7-29-1.7-6.1-1.8-13.5-2.4-114l-.5-107.5-2.2-5.8c-7-18.5-19.5-30.9-37.5-37.5l-7.3-2.7-81-.1c-44.5-.1-83.7.2-87 .7z"/></symbol></svg>